<?xml version="1.0" standalone="no"?>
<!DOCTYPE svg PUBLIC "-//W3C//DTD SVG 20010904//EN"
 "http://www.w3.org/TR/2001/REC-SVG-20010904/DTD/svg10.dtd">
<svg version="1.0" xmlns="http://www.w3.org/2000/svg"
 width="302.000000pt" height="302.000000pt" viewBox="0 0 302.000000 302.000000"
 preserveAspectRatio="xMidYMid meet">

<g transform="translate(0.000000,302.000000) scale(0.100000,-0.100000)"
fill="#000000" stroke="none">
<path d="M750 3013 c-40 -13 -60 -29 -75 -59 -14 -31 -7 -106 130 -1320 80
-708 145 -1295 145 -1305 0 -15 -10 -19 -67 -21 l-68 -3 0 -145 0 -145 360 0
360 0 3 53 c3 52 3 52 36 52 35 0 62 21 51 40 -3 5 -24 10 -46 10 -36 0 -40 2
-37 23 2 18 11 23 48 27 37 4 45 9 45 25 0 15 -8 21 -33 23 -21 2 -32 8 -29
15 3 7 177 442 387 967 210 525 385 974 387 996 14 113 -87 223 -203 224 -76
0 -133 -41 -224 -162 -75 -101 -83 -108 -115 -108 -42 0 -41 -2 -226 295 -161
259 -219 327 -334 387 -104 54 -175 72 -283 71 -79 -1 -94 1 -102 17 -5 9 -25
25 -44 34 -36 17 -41 18 -66 9z m54 -65 c25 -23 26 -32 170 -1343 81 -726 147
-1331 149 -1345 2 -22 -1 -25 -32 -23 -21 1 -43 11 -59 26 -24 25 -27 43 -173
1344 l-149 1318 25 23 c15 12 30 22 35 22 5 0 20 -10 34 -22z m307 -64 c84
-25 168 -74 229 -134 38 -38 106 -135 214 -307 86 -139 169 -262 183 -273 36
-28 104 -27 138 3 14 12 56 62 93 111 86 114 108 131 177 131 81 0 141 -53
152 -133 5 -37 -36 -145 -401 -1056 -264 -661 -406 -1028 -406 -1051 l0 -35
-155 0 -155 0 0 31 c0 21 163 344 520 1030 286 550 520 1011 520 1025 0 32
-42 74 -74 74 -36 0 -64 -31 -140 -151 -71 -114 -109 -149 -185 -169 -80 -21
-177 7 -232 67 -15 15 -93 132 -174 258 -82 127 -160 243 -174 259 -75 82
-212 87 -292 10 l-27 -26 -6 39 c-3 21 -10 83 -16 138 -6 55 -13 117 -16 138
l-6 37 89 0 c52 0 112 -7 144 -16z m-45 -568 c3 -8 52 -421 108 -918 92 -812
101 -906 89 -931 -8 -16 -16 -27 -18 -25 -4 3 -215 1851 -215 1878 0 15 30 12
36 -4z m275 -771 c77 -683 84 -763 72 -788 -8 -16 -16 -27 -18 -25 -2 2 -42
346 -89 763 -47 418 -88 773 -91 788 -4 25 -2 28 17 25 22 -3 24 -16 109 -763z
m827 679 c2 -11 -12 -37 -32 -59 l-35 -40 -1 39 c0 62 60 114 68 60z m-726
-56 c9 -18 22 -87 30 -153 l13 -120 45 -5 c29 -3 46 -10 47 -20 2 -8 16 -134
33 -280 l30 -264 -42 -43 -41 -42 10 -83 c8 -69 7 -88 -5 -113 -8 -16 -17 -25
-19 -20 -3 11 -133 1152 -133 1173 0 20 13 8 32 -30z m587 -198 c0 -20 -7 -45
-18 -59 l-18 -24 -7 63 c-6 50 -4 67 11 88 l17 27 7 -30 c4 -16 7 -46 8 -65z
m-103 -28 c7 -4 15 -41 19 -82 6 -63 4 -78 -9 -89 -20 -17 -22 -11 -33 97 -9
81 -5 93 23 74z m-64 -154 l16 -143 -52 -77 c-52 -79 -66 -92 -66 -60 0 9 -9
91 -19 182 -11 91 -18 166 -18 167 1 1 21 -2 45 -7 l42 -7 0 43 c0 36 3 44 18
44 16 0 20 -17 34 -142z m-879 -1548 c19 -27 84 -60 119 -60 21 0 28 -5 28
-20 0 -19 -7 -20 -125 -20 -69 0 -128 -1 -132 -2 -5 -2 -9 25 -11 60 l-3 62
55 0 c44 0 58 -4 69 -20z m504 -167 c4 -10 -63 -13 -311 -13 -278 0 -330 3
-312 21 3 2 143 4 312 4 237 0 308 -3 311 -12z"/>
<path d="M1490 1838 c0 -23 60 -522 63 -525 2 -2 13 9 23 24 17 27 17 34 -5
233 -30 278 -28 270 -57 270 -13 0 -24 -1 -24 -2z"/>
<path d="M1773 1758 c3 -23 9 -68 13 -98 l6 -54 19 23 c13 16 19 38 18 70 -1
70 -11 96 -38 99 -22 4 -23 1 -18 -40z"/>
</g>
</svg>
